<svg width="400" height="300" viewBox="0 0 400 300" xmlns="http://www.w3.org/2000/svg">
  <!-- Background Gradient -->
  <defs>
    <linearGradient id="bgGradient" x1="0%" y1="0%" x2="100%" y2="100%">
      <stop offset="0%" style="stop-color:#667eea;stop-opacity:1" />
      <stop offset="100%" style="stop-color:#764ba2;stop-opacity:1" />
    </linearGradient>
    
    <linearGradient id="cardGradient" x1="0%" y1="0%" x2="100%" y2="100%">
      <stop offset="0%" style="stop-color:#ffffff;stop-opacity:0.95" />
      <stop offset="100%" style="stop-color:#f8fafc;stop-opacity:0.9" />
    </linearGradient>
    
    <linearGradient id="iconGradient" x1="0%" y1="0%" x2="100%" y2="100%">
      <stop offset="0%" style="stop-color:#4f46e5;stop-opacity:1" />
      <stop offset="100%" style="stop-color:#7c3aed;stop-opacity:1" />
    </linearGradient>
    
    <!-- Shadow Filter -->
    <filter id="shadow" x="-20%" y="-20%" width="140%" height="140%">
      <feDropShadow dx="0" dy="4" stdDeviation="8" flood-color="#000000" flood-opacity="0.1"/>
    </filter>
  </defs>
  
  <!-- Background -->
  <rect width="400" height="300" fill="url(#bgGradient)"/>
  
  <!-- Floating Elements -->
  <circle cx="50" cy="50" r="20" fill="#ffffff" opacity="0.1"/>
  <circle cx="350" cy="80" r="15" fill="#ffffff" opacity="0.08"/>
  <circle cx="80" cy="250" r="25" fill="#ffffff" opacity="0.06"/>
  <circle cx="320" cy="220" r="18" fill="#ffffff" opacity="0.1"/>
  
  <!-- Main Content Area -->
  <rect x="50" y="60" width="300" height="180" rx="16" fill="url(#cardGradient)" filter="url(#shadow)"/>
  
  <!-- Header Section -->
  <rect x="70" y="80" width="260" height="40" rx="8" fill="url(#iconGradient)" opacity="0.1"/>
  
  <!-- Clock Icon (Top) -->
  <circle cx="200" cy="100" r="12" fill="none" stroke="url(#iconGradient)" stroke-width="2"/>
  <line x1="200" y1="94" x2="200" y2="100" stroke="url(#iconGradient)" stroke-width="2" stroke-linecap="round"/>
  <line x1="200" y1="100" x2="204" y2="104" stroke="url(#iconGradient)" stroke-width="2" stroke-linecap="round"/>
  
  <!-- People Icons (Group Members) -->
  <!-- Person 1 -->
  <circle cx="120" cy="150" r="8" fill="#ff6b6b"/>
  <rect x="115" y="158" width="10" height="12" rx="2" fill="#ff6b6b"/>
  
  <!-- Person 2 -->
  <circle cx="150" cy="150" r="8" fill="#4ecdc4"/>
  <rect x="145" y="158" width="10" height="12" rx="2" fill="#4ecdc4"/>
  
  <!-- Person 3 -->
  <circle cx="180" cy="150" r="8" fill="#45b7d1"/>
  <rect x="175" y="158" width="10" height="12" rx="2" fill="#45b7d1"/>
  
  <!-- Person 4 -->
  <circle cx="210" cy="150" r="8" fill="#96ceb4"/>
  <rect x="205" y="158" width="10" height="12" rx="2" fill="#96ceb4"/>
  
  <!-- Person 5 -->
  <circle cx="240" cy="150" r="8" fill="#feca57"/>
  <rect x="235" y="158" width="10" height="12" rx="2" fill="#feca57"/>
  
  <!-- Person 6 -->
  <circle cx="270" cy="150" r="8" fill="#ff9ff3"/>
  <rect x="265" y="158" width="10" height="12" rx="2" fill="#ff9ff3"/>
  
  <!-- Table/Desk -->
  <ellipse cx="200" cy="180" rx="80" ry="12" fill="#e2e8f0"/>
  <rect x="120" y="175" width="160" height="8" rx="4" fill="#cbd5e0"/>
  
  <!-- Project Documents/Cards -->
  <rect x="140" y="190" width="30" height="20" rx="3" fill="#ffffff" stroke="#e2e8f0" stroke-width="1"/>
  <rect x="180" y="190" width="30" height="20" rx="3" fill="#ffffff" stroke="#e2e8f0" stroke-width="1"/>
  <rect x="220" y="190" width="30" height="20" rx="3" fill="#ffffff" stroke="#e2e8f0" stroke-width="1"/>
  
  <!-- Document Lines -->
  <line x1="145" y1="195" x2="165" y2="195" stroke="#cbd5e0" stroke-width="1"/>
  <line x1="145" y1="200" x2="160" y2="200" stroke="#cbd5e0" stroke-width="1"/>
  <line x1="145" y1="205" x2="165" y2="205" stroke="#cbd5e0" stroke-width="1"/>
  
  <line x1="185" y1="195" x2="205" y2="195" stroke="#cbd5e0" stroke-width="1"/>
  <line x1="185" y1="200" x2="200" y2="200" stroke="#cbd5e0" stroke-width="1"/>
  <line x1="185" y1="205" x2="205" y2="205" stroke="#cbd5e0" stroke-width="1"/>
  
  <line x1="225" y1="195" x2="245" y2="195" stroke="#cbd5e0" stroke-width="1"/>
  <line x1="225" y1="200" x2="240" y2="200" stroke="#cbd5e0" stroke-width="1"/>
  <line x1="225" y1="205" x2="245" y2="205" stroke="#cbd5e0" stroke-width="1"/>
  
  <!-- Connection Lines (Collaboration) -->
  <path d="M 120 150 Q 135 140 150 150" stroke="url(#iconGradient)" stroke-width="1.5" fill="none" opacity="0.6"/>
  <path d="M 150 150 Q 165 140 180 150" stroke="url(#iconGradient)" stroke-width="1.5" fill="none" opacity="0.6"/>
  <path d="M 180 150 Q 195 140 210 150" stroke="url(#iconGradient)" stroke-width="1.5" fill="none" opacity="0.6"/>
  <path d="M 210 150 Q 225 140 240 150" stroke="url(#iconGradient)" stroke-width="1.5" fill="none" opacity="0.6"/>
  <path d="M 240 150 Q 255 140 270 150" stroke="url(#iconGradient)" stroke-width="1.5" fill="none" opacity="0.6"/>
  
  <!-- Academic Cap Icon -->
  <path d="M 90 130 L 110 125 L 130 130 L 110 135 Z" fill="url(#iconGradient)"/>
  <rect x="108" y="135" width="4" height="8" fill="url(#iconGradient)"/>
  <circle cx="110" cy="143" r="2" fill="url(#iconGradient)"/>
  
  <!-- Project Management Icon -->
  <rect x="280" y="125" width="20" height="15" rx="2" fill="none" stroke="url(#iconGradient)" stroke-width="1.5"/>
  <line x1="285" y1="130" x2="295" y2="130" stroke="url(#iconGradient)" stroke-width="1"/>
  <line x1="285" y1="135" x2="290" y2="135" stroke="url(#iconGradient)" stroke-width="1"/>
  <circle cx="297" cy="132" r="1.5" fill="url(#iconGradient)"/>
  
  <!-- Decorative Elements -->
  <circle cx="100" cy="220" r="3" fill="#ffffff" opacity="0.3"/>
  <circle cx="300" cy="100" r="2" fill="#ffffff" opacity="0.4"/>
  <circle cx="320" cy="180" r="2.5" fill="#ffffff" opacity="0.2"/>
</svg>