<svg xmlns="http://www.w3.org/2000/svg" viewBox="0 0 400 250" style="background: linear-gradient(135deg, #ffecd2 0%, #fcb69f 100%);">
  <defs>
    <linearGradient id="browserGrad" x1="0%" y1="0%" x2="100%" y2="100%">
      <stop offset="0%" style="stop-color:#f8fafc;stop-opacity:1" />
      <stop offset="100%" style="stop-color:#e2e8f0;stop-opacity:1" />
    </linearGradient>
    <filter id="browserShadow">
      <feDropShadow dx="0" dy="6" stdDeviation="8" flood-color="#000000" flood-opacity="0.15"/>
    </filter>
  </defs>
  
  <!-- Browser Window -->
  <rect x="30" y="30" width="340" height="190" rx="12" fill="url(#browserGrad)" filter="url(#browserShadow)"/>
  
  <!-- Browser Header -->
  <rect x="30" y="30" width="340" height="30" rx="12" fill="#e2e8f0"/>
  <rect x="30" y="45" width="340" height="15" fill="#e2e8f0"/>
  
  <!-- Traffic Lights -->
  <circle cx="50" cy="45" r="5" fill="#ef4444"/>
  <circle cx="65" cy="45" r="5" fill="#f59e0b"/>
  <circle cx="80" cy="45" r="5" fill="#10b981"/>
  
  <!-- URL Bar -->
  <rect x="110" y="37" width="200" height="16" rx="8" fill="#ffffff" stroke="#cbd5e1" stroke-width="1"/>
  <text x="115" y="47" font-family="Arial" font-size="8" fill="#64748b">https://joaopaulo-portfolio.com</text>
  
  <!-- Navigation Icons -->
  <circle cx="330" cy="45" r="6" fill="#6366f1" opacity="0.8"/>
  <text x="327" y="48" font-family="Arial" font-size="8" fill="#ffffff">⚙️</text>
  
  <circle cx="350" cy="45" r="6" fill="#10b981" opacity="0.8"/>
  <text x="347" y="48" font-family="Arial" font-size="8" fill="#ffffff">🔄</text>
  
  <!-- Website Content -->
  <rect x="40" y="70" width="320" height="140" rx="6" fill="#ffffff"/>
  
  <!-- Header Section -->
  <rect x="50" y="80" width="300" height="40" rx="4" fill="#1e293b"/>
  <circle cx="70" cy="100" r="12" fill="#6366f1"/>
  <text x="66" y="104" font-family="Arial" font-size="10" fill="#ffffff">JP</text>
  
  <text x="90" y="95" font-family="Arial" font-size="12" font-weight="bold" fill="#ffffff">João Paulo</text>
  <text x="90" y="108" font-family="Arial" font-size="8" fill="#94a3b8">Desenvolvedor Fullstack</text>
  
  <!-- Navigation Menu -->
  <rect x="250" y="85" width="40" height="8" rx="2" fill="#6366f1" opacity="0.8"/>
  <text x="252" y="91" font-family="Arial" font-size="6" fill="#ffffff">Home</text>
  
  <rect x="295" y="85" width="40" height="8" rx="2" fill="#64748b" opacity="0.6"/>
  <text x="297" y="91" font-family="Arial" font-size="6" fill="#ffffff">Sobre</text>
  
  <rect x="250" y="100" width="40" height="8" rx="2" fill="#64748b" opacity="0.6"/>
  <text x="252" y="106" font-family="Arial" font-size="6" fill="#ffffff">Projetos</text>
  
  <rect x="295" y="100" width="40" height="8" rx="2" fill="#64748b" opacity="0.6"/>
  <text x="297" y="106" font-family="Arial" font-size="6" fill="#ffffff">Contato</text>
  
  <!-- Hero Section -->
  <rect x="50" y="130" width="140" height="70" rx="4" fill="#f1f5f9"/>
  <text x="55" y="145" font-family="Arial" font-size="10" font-weight="bold" fill="#1e293b">Olá, eu sou João!</text>
  <text x="55" y="158" font-family="Arial" font-size="7" fill="#64748b">Desenvolvedor apaixonado por</text>
  <text x="55" y="168" font-family="Arial" font-size="7" fill="#64748b">criar soluções inovadoras</text>
  
  <rect x="55" y="175" width="50" height="15" rx="3" fill="#6366f1"/>
  <text x="58" y="184" font-family="Arial" font-size="6" fill="#ffffff">Ver Projetos</text>
  
  <rect x="110" y="175" width="50" height="15" rx="3" fill="none" stroke="#6366f1" stroke-width="1"/>
  <text x="113" y="184" font-family="Arial" font-size="6" fill="#6366f1">Contato</text>
  
  <!-- Projects Grid -->
  <rect x="200" y="130" width="60" height="35" rx="4" fill="#e2e8f0"/>
  <rect x="205" y="135" width="50" height="20" rx="2" fill="#6366f1" opacity="0.8"/>
  <text x="207" y="147" font-family="Arial" font-size="6" fill="#ffffff">E-commerce</text>
  <text x="207" y="155" font-family="Arial" font-size="5" fill="#ffffff">React • Node.js</text>
  
  <rect x="270" y="130" width="60" height="35" rx="4" fill="#e2e8f0"/>
  <rect x="275" y="135" width="50" height="20" rx="2" fill="#10b981" opacity="0.8"/>
  <text x="277" y="147" font-family="Arial" font-size="6" fill="#ffffff">Dashboard</text>
  <text x="277" y="155" font-family="Arial" font-size="5" fill="#ffffff">Vue.js • PHP</text>
  
  <rect x="200" y="170" width="60" height="35" rx="4" fill="#e2e8f0"/>
  <rect x="205" y="175" width="50" height="20" rx="2" fill="#f59e0b" opacity="0.8"/>
  <text x="207" y="187" font-family="Arial" font-size="6" fill="#ffffff">Mobile App</text>
  <text x="207" y="195" font-family="Arial" font-size="5" fill="#ffffff">React Native</text>
  
  <rect x="270" y="170" width="60" height="35" rx="4" fill="#e2e8f0"/>
  <rect x="275" y="175" width="50" height="20" rx="2" fill="#ef4444" opacity="0.8"/>
  <text x="277" y="187" font-family="Arial" font-size="6" fill="#ffffff">API REST</text>
  <text x="277" y="195" font-family="Arial" font-size="5" fill="#ffffff">Laravel • MySQL</text>
  
  <!-- Floating Code Elements -->
  <circle cx="380" cy="80" r="8" fill="#6366f1" opacity="0.3"/>
  <text x="377" y="84" font-family="Arial" font-size="6" fill="#ffffff">&lt;/&gt;</text>
  
  <circle cx="20" cy="120" r="10" fill="#10b981" opacity="0.3"/>
  <text x="16" y="125" font-family="Arial" font-size="8" fill="#ffffff">{ }</text>
  
  <circle cx="390" cy="180" r="6" fill="#f59e0b" opacity="0.3"/>
  <text x="388" y="183" font-family="Arial" font-size="5" fill="#ffffff">JS</text>
  
  <circle cx="10" cy="200" r="12" fill="#ef4444" opacity="0.3"/>
  <text x="6" y="205" font-family="Arial" font-size="8" fill="#ffffff">💻</text>
</svg>